0
SECTION
2
HEADER
9
$INSUNITS
70
5
9
$ACADVER
1
AC1014
9
$HANDSEED
5
FFFF
0
ENDSEC
0
SECTION
2
TABLES
0
TABLE
2
VPORT
5
8
100
AcDbSymbolTable
0
ENDTAB
0
TABLE
2
LTYPE
5
5
100
AcDbSymbolTable
0
LTYPE
5
14
100
AcDbSymbolTableRecord
100
AcDbLinetypeTableRecord
2
BYBLOCK
70
0
0
LTYPE
5
15
100
AcDbSymbolTableRecord
100
AcDbLinetypeTableRecord
2
BYLAYER
70
0
0
ENDTAB
0
TABLE
2
LAYER
5
2
100
AcDbSymbolTable
70
2
0
LAYER
5
50
100
AcDbSymbolTableRecord
100
AcDbLayerTableRecord
2
0
70
0
6
CONTINUOUS
0
ENDTAB
0
TABLE
2
STYLE
5
3
100
AcDbSymbolTable
70
1
0
STYLE
5
11
100
AcDbSymbolTableRecord
100
AcDbTextStyleTableRecord
2
STANDARD
70
0
0
ENDTAB
0
TABLE
2
VIEW
5
6
100
AcDbSymbolTable
70
0
0
ENDTAB
0
TABLE
2
UCS
5
7
100
AcDbSymbolTable
70
0
0
ENDTAB
0
TABLE
2
APPID
5
9
100
AcDbSymbolTable
70
2
0
APPID
5
12
100
AcDbSymbolTableRecord
100
AcDbRegAppTableRecord
2
ACAD
70
0
0
ENDTAB
0
TABLE
2
DIMSTYLE
5
A
100
AcDbSymbolTable
70
1
0
ENDTAB
0
TABLE
2
BLOCK_RECORD
5
1
100
AcDbSymbolTable
70
1
0
BLOCK_RECORD
5
1F
100
AcDbSymbolTableRecord
100
AcDbBlockTableRecord
2
*MODEL_SPACE
0
BLOCK_RECORD
5
1B
100
AcDbSymbolTableRecord
100
AcDbBlockTableRecord
2
*PAPER_SPACE
0
ENDTAB
0
ENDSEC
0
SECTION
2
BLOCKS
0
BLOCK
5
20
100
AcDbEntity
100
AcDbBlockBegin
2
*MODEL_SPACE
0
ENDBLK
5
21
100
AcDbEntity
100
AcDbBlockEnd
0
BLOCK
5
1C
100
AcDbEntity
100
AcDbBlockBegin
2
*PAPER_SPACE
0
ENDBLK
5
1D
100
AcDbEntity
100
AcDbBlockEnd
0
ENDSEC
0
SECTION
2
ENTITIES
0
ARC
5
100
100
AcDbEntity
8
OUTER_PROFILES
100
AcDbCircle
10
4.9261946621177772
20
1.2527580404943226
30
0
40
1.2527580404943215
210
-0
220
0
230
1
100
AcDbArc
50
72.108470183418135
51
90
0
LINE
5
101
100
AcDbEntity
8
OUTER_PROFILES
100
AcDbLine
10
4.9261946621177772
20
2.5055160809886443
30
0
11
-2.9802313505911115e-08
21
2.5055160809886443
31
0
0
LINE
5
102
100
AcDbEntity
8
OUTER_PROFILES
100
AcDbLine
10
-2.9802313505911115e-08
20
2.5055160809886443
30
0
11
0
21
6.2527581150001286
31
0
0
SPLINE
5
103
100
AcDbEntity
8
OUTER_PROFILES
100
AcDbSpline
70
4
71
2
72
6
73
3
74
0
42
0.000000001
43
0.0000000001
44
0.0000000001
40
0
40
0
40
0
40
1
40
1
40
1
41
1
41
1
41
1
10
-2.0000000298023135
20
9.5055160809886416
30
0
10
-2.9802313505911115e-08
20
9.5055160809886434
30
0
10
1.1519096594480646e-32
20
6.2527581150001286
30
0
0
SPLINE
5
104
100
AcDbEntity
8
OUTER_PROFILES
100
AcDbSpline
70
4
71
2
72
6
73
3
74
0
42
0.000000001
43
0.0000000001
44
0.0000000001
40
0
40
0
40
0
40
1
40
1
40
1
41
1
41
1
41
1
10
-2.0000000298023313
20
9.5055160809886416
30
0
10
-4.0000000298023313
20
9.5055160809886434
30
0
10
-4.0000000596046448
20
6.2527581150001286
30
0
0
LINE
5
105
100
AcDbEntity
8
OUTER_PROFILES
100
AcDbLine
10
-4.0000000596046448
20
6.2527581150001286
30
0
11
-4.0000000298023313
21
2.5055160809886443
31
0
0
LINE
5
106
100
AcDbEntity
8
OUTER_PROFILES
100
AcDbLine
10
-4.0000000298023313
20
2.5055160809886443
30
0
11
-8.9261947217224211
21
2.5055160809886443
31
0
0
ARC
5
107
100
AcDbEntity
8
OUTER_PROFILES
100
AcDbCircle
10
8.9261947217224211
20
1.2527580404943226
30
0
40
1.2527580404943215
210
0
220
0
230
-1
100
AcDbArc
50
72.108470183418135
51
90
0
LINE
5
108
100
AcDbEntity
8
OUTER_PROFILES
100
AcDbLine
10
-9.3110619579411349
20
2.444932490190566
30
0
11
-11.114974533805263
21
1.727281476108347
31
0
0
ARC
5
109
100
AcDbEntity
8
OUTER_PROFILES
100
AcDbCircle
10
10.926194751524744
20
1.2527580404943226
30
0
40
0.51069589497549062
210
-0
220
0
230
-1
100
AcDbArc
50
-68.22087684832124
51
68.305840357642808
0
LINE
5
110
100
AcDbEntity
8
OUTER_PROFILES
100
AcDbLine
10
-11.11567799345905
20
0.7785150667236167
30
0
11
-9.3910053665624069
21
0.089420697989316844
31
0
0
ARC
5
111
100
AcDbEntity
8
OUTER_PROFILES
100
AcDbCircle
10
8.9261947217224211
20
1.2527580404943226
30
0
40
1.2527580404943217
210
-0
220
-0
230
-1
100
AcDbArc
50
270
51
291.77914565953455
0
LINE
5
112
100
AcDbEntity
8
OUTER_PROFILES
100
AcDbLine
10
-8.9261947217224211
20
8.8817841970012523e-16
30
0
11
-4.0000000596046448
21
0
31
0
0
LINE
5
113
100
AcDbEntity
8
OUTER_PROFILES
100
AcDbLine
10
-4.0000000596046448
20
0
30
0
11
-4.0000000596046448
21
-3.7472420340114834
31
0
0
SPLINE
5
114
100
AcDbEntity
8
OUTER_PROFILES
100
AcDbSpline
70
4
71
2
72
6
73
3
74
0
42
0.000000001
43
0.0000000001
44
0.0000000001
40
-1
40
-1
40
-1
40
-0
40
-0
40
-0
41
1
41
1
41
1
10
-4.0000000596046448
20
-3.7472420340114834
30
0
10
-4.0000000596046448
20
-7
30
0
10
-2.0000000298023313
20
-7
30
0
0
SPLINE
5
115
100
AcDbEntity
8
OUTER_PROFILES
100
AcDbSpline
70
4
71
2
72
6
73
3
74
0
42
0.000000001
43
0.0000000001
44
0.0000000001
40
-1
40
-1
40
-1
40
-0
40
-0
40
-0
41
1
41
1
41
1
10
1.1519096594480646e-32
20
-3.7472420340114834
30
0
10
1.1519096594480646e-32
20
-7
30
0
10
-2.0000000298023135
20
-7
30
0
0
LINE
5
116
100
AcDbEntity
8
OUTER_PROFILES
100
AcDbLine
10
1.1519096594480646e-32
20
-3.7472420340114834
30
0
11
1.1519096594480646e-32
21
0
31
0
0
LINE
5
117
100
AcDbEntity
8
OUTER_PROFILES
100
AcDbLine
10
1.1519096594480646e-32
20
0
30
0
11
4.9261946621177772
21
8.8817841970012523e-16
31
0
0
ARC
5
118
100
AcDbEntity
8
OUTER_PROFILES
100
AcDbCircle
10
4.9261946621177772
20
1.2527580404943226
30
0
40
1.2527580404943217
210
-0
220
0
230
1
100
AcDbArc
50
270
51
291.77914565953455
0
LINE
5
119
100
AcDbEntity
8
OUTER_PROFILES
100
AcDbLine
10
5.391005306957763
20
0.089420697989316844
30
0
11
7.1156779338544061
21
0.7785150667236167
31
0
0
ARC
5
120
100
AcDbEntity
8
OUTER_PROFILES
100
AcDbCircle
10
6.9261946919200996
20
1.2527580404943226
30
0
40
0.51069589497549062
210
-0
220
0
230
1
100
AcDbArc
50
-68.22087684832124
51
68.305840357642893
0
LINE
5
121
100
AcDbEntity
8
OUTER_PROFILES
100
AcDbLine
10
7.1149744742006185
20
1.727281476108347
30
0
11
5.311061898336491
21
2.444932490190566
31
0
0
CIRCLE
5
122
100
AcDbEntity
8
INTERIOR_PROFILES
100
AcDbCircle
10
-10.926194751524744
20
1.2527580404943226
30
0
40
0.35499999999999998
210
-0
220
0
230
1
0
CIRCLE
5
123
100
AcDbEntity
8
INTERIOR_PROFILES
100
AcDbCircle
10
-8.9261947217224211
20
1.2527580404943226
30
0
40
0.35499999999999998
210
-0
220
0
230
1
0
CIRCLE
5
124
100
AcDbEntity
8
INTERIOR_PROFILES
100
AcDbCircle
10
-8.9261947217224211
20
2.1027580404943222
30
0
40
0.14999999999999991
210
-0
220
0
230
1
0
CIRCLE
5
125
100
AcDbEntity
8
INTERIOR_PROFILES
100
AcDbCircle
10
-8.9261947217224211
20
0.40275804049432296
30
0
40
0.15000000000000002
210
-0
220
0
230
1
0
CIRCLE
5
126
100
AcDbEntity
8
INTERIOR_PROFILES
100
AcDbCircle
10
-4.9261946621177772
20
2.1027580404943222
30
0
40
0.14999999999999991
210
0
220
0
230
-1
0
CIRCLE
5
127
100
AcDbEntity
8
INTERIOR_PROFILES
100
AcDbCircle
10
-6.9261946919200996
20
1.2527580404943226
30
0
40
0.35499999999999998
210
0
220
0
230
-1
0
CIRCLE
5
128
100
AcDbEntity
8
INTERIOR_PROFILES
100
AcDbCircle
10
-4.9261946621177772
20
0.40275804049432296
30
0
40
0.15000000000000002
210
0
220
0
230
-1
0
CIRCLE
5
129
100
AcDbEntity
8
INTERIOR_PROFILES
100
AcDbCircle
10
-4.9261946621177772
20
1.2527580404943226
30
0
40
0.35499999999999998
210
0
220
0
230
-1
0
LINE
5
130
100
AcDbEntity
8
BEND
100
AcDbLine
10
3.5130973057269195
20
0
30
6.168263381116134e-17
11
3.5130973057269195
21
2.5055160809886443
31
9.3383986912736091e-16
0
LINE
5
131
100
AcDbEntity
8
BEND
100
AcDbLine
10
-7.5130973653315625
20
2.5055160809886443
30
6.1981514784496687e-16
11
-7.5130973653315625
21
0
31
-2.4275109281564105e-16
0
LINE
5
132
100
AcDbEntity
8
BEND_EXTENT
100
AcDbLine
10
3.3999999701976868
20
2.5055160809886443
30
7.1179526420232921e-16
11
3.3999999701976868
21
0
31
-1.7638315549779602e-16
0
LINE
5
133
100
AcDbEntity
8
BEND_EXTENT
100
AcDbLine
10
3.6261946412561508
20
8.8817841970012523e-16
30
-4.1016215165453019e-16
11
3.6261946412561508
21
2.5055160809886443
31
-4.1016215165453019e-16
0
LINE
5
134
100
AcDbEntity
8
BEND_EXTENT
100
AcDbLine
10
-7.4000000298023316
20
2.5055160809886443
30
8.2798196496218372e-16
11
-7.4000000298023316
21
0
31
-6.0196454737941511e-17
0
LINE
5
135
100
AcDbEntity
8
BEND_EXTENT
100
AcDbLine
10
-7.6261947008607951
20
8.8817841970012523e-16
30
-7.1459587828133258e-16
11
-7.6261947008607951
21
2.5055160809886443
31
-7.1459587828133258e-16
0
ENDSEC
0
SECTION
2
OBJECTS
0
DICTIONARY
5
C
100
AcDbDictionary
3
ACAD_GROUP
350
D
3
ACAD_MLINESTYLE
350
17
0
DICTIONARY
5
D
100
AcDbDictionary
0
DICTIONARY
5
1A
330
C
100
AcDbDictionary
0
DICTIONARY
5
17
100
AcDbDictionary
0
ENDSEC
0
EOF
