0
SECTION
2
HEADER
9
$INSUNITS
70
5
9
$ACADVER
1
AC1014
9
$HANDSEED
5
FFFF
0
ENDSEC
0
SECTION
2
TABLES
0
TABLE
2
VPORT
5
8
100
AcDbSymbolTable
0
ENDTAB
0
TABLE
2
LTYPE
5
5
100
AcDbSymbolTable
0
LTYPE
5
14
100
AcDbSymbolTableRecord
100
AcDbLinetypeTableRecord
2
BYBLOCK
70
0
0
LTYPE
5
15
100
AcDbSymbolTableRecord
100
AcDbLinetypeTableRecord
2
BYLAYER
70
0
0
ENDTAB
0
TABLE
2
LAYER
5
2
100
AcDbSymbolTable
70
2
0
LAYER
5
50
100
AcDbSymbolTableRecord
100
AcDbLayerTableRecord
2
0
70
0
6
CONTINUOUS
0
ENDTAB
0
TABLE
2
STYLE
5
3
100
AcDbSymbolTable
70
1
0
STYLE
5
11
100
AcDbSymbolTableRecord
100
AcDbTextStyleTableRecord
2
STANDARD
70
0
0
ENDTAB
0
TABLE
2
VIEW
5
6
100
AcDbSymbolTable
70
0
0
ENDTAB
0
TABLE
2
UCS
5
7
100
AcDbSymbolTable
70
0
0
ENDTAB
0
TABLE
2
APPID
5
9
100
AcDbSymbolTable
70
2
0
APPID
5
12
100
AcDbSymbolTableRecord
100
AcDbRegAppTableRecord
2
ACAD
70
0
0
ENDTAB
0
TABLE
2
DIMSTYLE
5
A
100
AcDbSymbolTable
70
1
0
ENDTAB
0
TABLE
2
BLOCK_RECORD
5
1
100
AcDbSymbolTable
70
1
0
BLOCK_RECORD
5
1F
100
AcDbSymbolTableRecord
100
AcDbBlockTableRecord
2
*MODEL_SPACE
0
BLOCK_RECORD
5
1B
100
AcDbSymbolTableRecord
100
AcDbBlockTableRecord
2
*PAPER_SPACE
0
ENDTAB
0
ENDSEC
0
SECTION
2
BLOCKS
0
BLOCK
5
20
100
AcDbEntity
100
AcDbBlockBegin
2
*MODEL_SPACE
0
ENDBLK
5
21
100
AcDbEntity
100
AcDbBlockEnd
0
BLOCK
5
1C
100
AcDbEntity
100
AcDbBlockBegin
2
*PAPER_SPACE
0
ENDBLK
5
1D
100
AcDbEntity
100
AcDbBlockEnd
0
ENDSEC
0
SECTION
2
ENTITIES
0
LINE
5
100
100
AcDbEntity
8
OUTER_PROFILES
100
AcDbLine
10
6.3000292680628807
20
2.7506814678783158
30
0
11
6.2000292686479046
21
2.7506706509977339
31
0
0
LINE
5
101
100
AcDbEntity
8
OUTER_PROFILES
100
AcDbLine
10
6.2000292686479046
20
2.7506706509977339
30
0
11
6.1998939480585431
21
4.0016837091966888
31
0
0
SPLINE
5
102
100
AcDbEntity
8
OUTER_PROFILES
100
AcDbSpline
70
4
71
5
72
31
73
25
74
0
42
0.000000001
43
0.0000000001
44
0.0000000001
40
-0.99775344479641026
40
-0.99775344479641026
40
-0.99775344479641026
40
-0.99775344479641026
40
-0.99775344479641026
40
-0.99775344479641026
40
-0.95000000000000029
40
-0.90000000000000024
40
-0.8500000000000002
40
-0.80000000000000016
40
-0.75000000000000011
40
-0.70000000000000007
40
-0.65000000000000002
40
-0.59999999999999998
40
-0.54999999999999993
40
-0.49999999999999994
40
-0.44999999999999996
40
-0.39999999999999997
40
-0.34999999999999998
40
-0.29999999999999999
40
-0.25
40
-0.20000000000000001
40
-0.15000000000000002
40
-0.10000000000000001
40
-0.050000000000000003
40
-0
40
-0
40
-0
40
-0
40
-0
40
-0
41
1
41
1
41
1
41
1
41
1
41
1
41
1
41
1
41
1
41
1
41
1
41
1
41
1
41
1
41
1
41
1
41
1
41
1
41
1
41
1
41
1
41
1
41
1
41
1
41
1
10
6.1998939480622708
20
4.0016837091966719
30
0
10
5.7747768608133354
20
4.0035802584301079
30
0
10
4.9047111971614301
20
4.0385820280477995
30
0
10
3.5899920253387188
20
4.1871873892121574
30
0
10
1.8242371374138178
20
4.5516091469040489
30
0
10
-0.42926887530460611
20
5.1259477538255398
30
0
10
-2.7714971892619999
20
5.6132910682235631
30
0
10
-5.1803704974678375
20
5.7971874234592891
30
0
10
-7.6072804125508
20
5.5120912743711807
30
0
10
-9.9297383769554433
20
4.6919132243690687
30
0
10
-11.94466736353276
20
3.4002021404515439
30
0
10
-13.42639243547846
20
1.7814160578845546
30
0
10
-14.176374575782406
20
0.026294474854814176
30
0
10
-14.071078006442113
20
-1.6652148823023942
30
0
10
-13.126422167360944
20
-3.1236313342389872
30
0
10
-11.509765671420285
20
-4.2342059632094999
30
0
10
-9.4613265744789334
20
-4.9328789746954049
30
0
10
-7.2370652447552679
20
-5.2103419958606576
30
0
10
-5.0467777150583384
20
-5.1131507221664245
30
0
10
-2.9867700701137174
20
-4.7502245746999492
30
0
10
-1.0675769059296289
20
-4.2635048521212608
30
0
10
0.38436216892730357
20
-3.8888541450709861
30
0
10
1.4489035822115381
20
-3.6662027295485173
30
0
10
2.1515040352679504
20
-3.5500959447021705
30
0
10
2.5010316074213206
20
-3.5001248554160811
30
0
0
LINE
5
103
100
AcDbEntity
8
OUTER_PROFILES
100
AcDbLine
10
2.5010316074213206
20
-3.5001248554160815
30
0
11
2.5009774819184889
21
-2.999729478206719
31
0
0
LINE
5
104
100
AcDbEntity
8
OUTER_PROFILES
100
AcDbLine
10
2.5009774819184889
20
-2.999729478206719
30
0
11
0.0009773922429205939
21
-2.9999999565409627
31
0
0
LINE
5
105
100
AcDbEntity
8
OUTER_PROFILES
100
AcDbLine
10
0.0009773922429205939
20
-2.9999999565409627
30
0
11
-1.7763568394002505e-15
21
0
31
0
0
LINE
5
106
100
AcDbEntity
8
OUTER_PROFILES
100
AcDbLine
10
-1.7763568394002505e-15
20
0
30
0
11
6.2003268054091274
21
1.1102230246251565e-16
31
0
0
LINE
5
107
100
AcDbEntity
8
OUTER_PROFILES
100
AcDbLine
10
6.2003268054091274
20
1.1102230246251565e-16
30
0
11
6.200299763441282
21
0.24998918131029293
31
0
0
LINE
5
108
100
AcDbEntity
8
OUTER_PROFILES
100
AcDbLine
10
6.200299763441282
20
0.24998918131029293
30
0
11
6.3002997628562163
21
0.24999999856548211
31
0
0
LINE
5
109
100
AcDbEntity
8
OUTER_PROFILES
100
AcDbLine
10
6.3002997628562163
20
0.24999999856548211
30
0
11
6.3004043080909495
21
-0.71646730106769208
31
0
0
ARC
5
110
100
AcDbEntity
8
OUTER_PROFILES
100
AcDbCircle
10
-7.0104043039369879
20
-0.71639049855584913
30
0
40
0.70999999999999996
210
-0
220
0
230
-1
100
AcDbArc
50
271.58166339692326
51
359.99380216935828
0
ARC
5
111
100
AcDbEntity
8
OUTER_PROFILES
100
AcDbCircle
10
-6.9907302745605531
20
-0.71611999251505898
30
0
40
0.71000000000000019
210
0
220
0
230
-1
100
AcDbArc
50
179.99380216935828
51
269.99380216930541
0
LINE
5
112
100
AcDbEntity
8
OUTER_PROFILES
100
AcDbLine
10
7.7007302704065914
20
-0.71604319000321615
30
0
11
7.7006257546633989
21
0.25015147540238269
31
0
0
LINE
5
113
100
AcDbEntity
8
OUTER_PROFILES
100
AcDbLine
10
7.7006257546633989
20
0.25015147540238269
30
0
11
7.8006257540783341
21
0.25016229265757178
31
0
0
LINE
5
114
100
AcDbEntity
8
OUTER_PROFILES
100
AcDbLine
10
7.8006257540783341
20
0.25016229265757178
30
0
11
7.8006527960462897
21
0.00017311033419833977
31
0
0
LINE
5
115
100
AcDbEntity
8
OUTER_PROFILES
100
AcDbLine
10
7.8006527960462897
20
0.00017311033419833977
30
0
11
14.00065291850737
21
0.0015143872165296335
31
0
0
LINE
5
116
100
AcDbEntity
8
OUTER_PROFILES
100
AcDbLine
10
14.00065291850737
20
0.0015143872165296335
30
0
11
14.000977364847728
21
-2.9979773362924598
31
0
0
LINE
5
117
100
AcDbEntity
8
OUTER_PROFILES
100
AcDbLine
10
14.000977364847728
20
-2.9979773362924598
30
0
11
12.000976668264576
21
-2.9981936705806049
31
0
0
LINE
5
118
100
AcDbEntity
8
OUTER_PROFILES
100
AcDbLine
10
12.000976668264576
20
-2.9981936705806049
30
0
11
12.001030718651119
21
-3.4982091643849857
31
0
0
LINE
5
119
100
AcDbEntity
8
OUTER_PROFILES
100
AcDbLine
10
12.001030718651119
20
-3.4982091643849857
30
0
11
13.901031600791967
21
-3.4984964609974005
31
0
0
SPLINE
5
120
100
AcDbEntity
8
OUTER_PROFILES
100
AcDbSpline
70
4
71
5
72
26
73
20
74
0
42
0.000000001
43
0.0000000001
44
0.0000000001
40
0
40
0
40
0
40
0
40
0
40
0
40
0.066666666666666666
40
0.13333333333333333
40
0.20000000000000001
40
0.26666666666666666
40
0.33333333333333331
40
0.39999999999999997
40
0.46666666666666662
40
0.53333333333333333
40
0.59999999999999998
40
0.66666666666666663
40
0.73333333333333328
40
0.79999999999999993
40
0.86666666666666659
40
0.93333333333333324
40
0.99190629662137508
40
0.99190629662137508
40
0.99190629662137508
40
0.99190629662137508
40
0.99190629662137508
40
0.99190629662137508
41
1
41
1
41
1
41
1
41
1
41
1
41
1
41
1
41
1
41
1
41
1
41
1
41
1
41
1
41
1
41
1
41
1
41
1
41
1
41
1
10
13.901031600791967
20
-3.4984964609974005
30
0
10
14.040070750742199
20
-3.4985174849227834
30
0
10
14.314589386176994
20
-3.4457765384426837
30
0
10
14.715670438321933
20
-3.2084275374967506
30
0
10
15.216349993680378
20
-2.6149216916729556
30
0
10
15.716442061857432
20
-1.6198345150475768
30
0
10
16.014504899249438
20
-0.57978392857315608
30
0
10
16.049063760049336
20
0.35684415075938181
30
0
10
15.814972503617847
20
1.2816369070240112
30
0
10
15.331171995274676
20
2.1974376693433544
30
0
10
14.629432286228907
20
3.0377515890279159
30
0
10
13.752804859810929
20
3.7159490449915169
30
0
10
12.750793095734313
20
4.1554977273543443
30
0
10
11.677012736925445
20
4.3348763820520304
30
0
10
10.58591198556941
20
4.30961207380654
30
0
10
9.5539198022590277
20
4.1768246073516746
30
0
10
8.790686473562948
20
4.0672506318877426
30
0
10
8.2676181655767387
20
4.0182369868763583
30
0
10
7.9461698851103932
20
4.0046713020558533
30
0
10
7.8002198733306809
20
4.0024611216079871
30
0
0
LINE
5
121
100
AcDbEntity
8
OUTER_PROFILES
100
AcDbLine
10
7.8002198733306791
20
4.0024611216079879
30
0
11
7.8003552592856051
21
2.7508437563500765
31
0
0
LINE
5
122
100
AcDbEntity
8
OUTER_PROFILES
100
AcDbLine
10
7.8003552592856051
20
2.7508437563500765
30
0
11
7.70035525987063
21
2.7508329394694946
31
0
0
LINE
5
123
100
AcDbEntity
8
OUTER_PROFILES
100
AcDbLine
10
7.70035525987063
20
2.7508329394694946
30
0
11
7.7002507182563535
21
3.7173002391030603
31
0
0
ARC
5
124
100
AcDbEntity
8
OUTER_PROFILES
100
AcDbCircle
10
-6.9902507224100274
20
3.7172234392509282
30
0
40
0.70999999999999996
210
0
220
0
230
-1
100
AcDbArc
50
91.581663611557389
51
179.99380238400101
0
ARC
5
125
100
AcDbEntity
8
OUTER_PROFILES
100
AcDbCircle
10
-7.0099247517854479
20
3.7169529331364384
30
0
40
0.71000000000000019
210
-0
220
0
230
-1
100
AcDbArc
50
-0.0061976159989913411
51
89.993802383939553
0
LINE
5
126
100
AcDbEntity
8
OUTER_PROFILES
100
AcDbLine
10
6.2999247559391218
20
3.7168761332843068
30
0
11
6.3000292680628807
21
2.7506814678783158
31
0
0
CIRCLE
5
127
100
AcDbEntity
8
INTERIOR_PROFILES
100
AcDbCircle
10
-7.0000866701549391
20
3.7269518690213927
30
0
40
0.35500000000000009
210
0
220
0
230
-1
0
CIRCLE
5
128
100
AcDbEntity
8
INTERIOR_PROFILES
100
AcDbCircle
10
-7.0005683562285199
20
-0.72611892836315906
30
0
40
0.35499999999999987
210
0
220
0
230
-1
0
LINE
5
129
100
AcDbEntity
8
BEND
100
AcDbLine
10
6.300011626018863
20
2.9137788024533888
30
-1.4385984664076466e-15
11
7.7003376178266132
21
2.9139302740445667
31
7.8184758284266887e-16
0
LINE
5
130
100
AcDbEntity
8
BEND
100
AcDbLine
10
7.7006433973183901
20
0.087054140827375753
30
2.8224722252816372e-16
11
6.3003174055112083
21
0.086902663990475248
31
4.2102510060630859e-16
0
LINE
5
131
100
AcDbEntity
8
BEND_EXTENT
100
AcDbLine
10
6.2999993924151374
20
3.0268761373209747
30
-8.8817841970012543e-16
11
7.7003253842228876
21
3.0270276089121522
31
1.3322676295501884e-15
0
LINE
5
132
100
AcDbEntity
8
BEND_EXTENT
100
AcDbLine
10
7.7006556313457866
20
-0.026043194040163697
30
7.3552275381416641e-16
11
6.3003296395386048
21
-0.02619467087706423
31
8.6042284408449652e-16
0
LINE
5
133
100
AcDbEntity
8
BEND_EXTENT
100
AcDbLine
10
6.3003051714838119
20
0.19999999885801464
30
0
11
7.7006311632909936
21
0.20015147569491512
31
0
0
LINE
5
134
100
AcDbEntity
8
BEND_EXTENT
100
AcDbLine
10
7.7003498514303388
20
2.8008329391769822
30
0
11
6.3000238596225895
21
2.8006814675858029
31
0
0
ENDSEC
0
SECTION
2
OBJECTS
0
DICTIONARY
5
C
100
AcDbDictionary
3
ACAD_GROUP
350
D
3
ACAD_MLINESTYLE
350
17
0
DICTIONARY
5
D
100
AcDbDictionary
0
DICTIONARY
5
1A
330
C
100
AcDbDictionary
0
DICTIONARY
5
17
100
AcDbDictionary
0
ENDSEC
0
EOF
