0
SECTION
2
HEADER
9
$INSUNITS
70
5
9
$ACADVER
1
AC1014
9
$HANDSEED
5
FFFF
0
ENDSEC
0
SECTION
2
TABLES
0
TABLE
2
VPORT
5
8
100
AcDbSymbolTable
0
ENDTAB
0
TABLE
2
LTYPE
5
5
100
AcDbSymbolTable
0
LTYPE
5
14
100
AcDbSymbolTableRecord
100
AcDbLinetypeTableRecord
2
BYBLOCK
70
0
0
LTYPE
5
15
100
AcDbSymbolTableRecord
100
AcDbLinetypeTableRecord
2
BYLAYER
70
0
0
ENDTAB
0
TABLE
2
LAYER
5
2
100
AcDbSymbolTable
70
2
0
LAYER
5
50
100
AcDbSymbolTableRecord
100
AcDbLayerTableRecord
2
0
70
0
6
CONTINUOUS
0
ENDTAB
0
TABLE
2
STYLE
5
3
100
AcDbSymbolTable
70
1
0
STYLE
5
11
100
AcDbSymbolTableRecord
100
AcDbTextStyleTableRecord
2
STANDARD
70
0
0
ENDTAB
0
TABLE
2
VIEW
5
6
100
AcDbSymbolTable
70
0
0
ENDTAB
0
TABLE
2
UCS
5
7
100
AcDbSymbolTable
70
0
0
ENDTAB
0
TABLE
2
APPID
5
9
100
AcDbSymbolTable
70
2
0
APPID
5
12
100
AcDbSymbolTableRecord
100
AcDbRegAppTableRecord
2
ACAD
70
0
0
ENDTAB
0
TABLE
2
DIMSTYLE
5
A
100
AcDbSymbolTable
70
1
0
ENDTAB
0
TABLE
2
BLOCK_RECORD
5
1
100
AcDbSymbolTable
70
1
0
BLOCK_RECORD
5
1F
100
AcDbSymbolTableRecord
100
AcDbBlockTableRecord
2
*MODEL_SPACE
0
BLOCK_RECORD
5
1B
100
AcDbSymbolTableRecord
100
AcDbBlockTableRecord
2
*PAPER_SPACE
0
ENDTAB
0
ENDSEC
0
SECTION
2
BLOCKS
0
BLOCK
5
20
100
AcDbEntity
100
AcDbBlockBegin
2
*MODEL_SPACE
0
ENDBLK
5
21
100
AcDbEntity
100
AcDbBlockEnd
0
BLOCK
5
1C
100
AcDbEntity
100
AcDbBlockBegin
2
*PAPER_SPACE
0
ENDBLK
5
1D
100
AcDbEntity
100
AcDbBlockEnd
0
ENDSEC
0
SECTION
2
ENTITIES
0
LINE
5
100
100
AcDbEntity
8
OUTER_PROFILES
100
AcDbLine
10
1.7510560015556997
20
-3.7260051802863616
30
0
11
1.7510314908009796
21
-3.4998105105559008
31
0
0
LINE
5
101
100
AcDbEntity
8
OUTER_PROFILES
100
AcDbLine
10
1.7510314908009796
20
-3.4998105105559008
30
0
11
1.5010314885381604
21
-3.4998375519240108
31
0
0
SPLINE
5
102
100
AcDbEntity
8
OUTER_PROFILES
100
AcDbSpline
70
4
71
5
72
31
73
25
74
0
42
0.000000001
43
0.0000000001
44
0.0000000001
40
-1
40
-1
40
-1
40
-1
40
-1
40
-1
40
-0.95000000000000029
40
-0.90000000000000024
40
-0.8500000000000002
40
-0.80000000000000016
40
-0.75000000000000011
40
-0.70000000000000007
40
-0.65000000000000002
40
-0.59999999999999998
40
-0.54999999999999993
40
-0.49999999999999994
40
-0.44999999999999996
40
-0.39999999999999997
40
-0.34999999999999998
40
-0.29999999999999999
40
-0.25
40
-0.20000000000000001
40
-0.15000000000000002
40
-0.10000000000000001
40
-0.050000000000000003
40
-0
40
-0
40
-0
40
-0
40
-0
40
-0
41
1
41
1
41
1
41
1
41
1
41
1
41
1
41
1
41
1
41
1
41
1
41
1
41
1
41
1
41
1
41
1
41
1
41
1
41
1
41
1
41
1
41
1
41
1
41
1
41
1
10
6.2998937003150406
20
4.0015741235958533
30
0
10
5.8604302219621101
20
4.0005765940572564
30
0
10
4.9803411398502035
20
4.0303797973860851
30
0
10
3.6567223604901766
20
4.1704796677740656
30
0
10
1.8800595223277003
20
4.5218511536932748
30
0
10
-0.38124692104203106
20
5.0827428728832205
30
0
10
-2.6970599088384475
20
5.5679268743271653
30
0
10
-5.0585792317376956
20
5.7778218112426138
30
0
10
-7.4192956589276022
20
5.5511727163696714
30
0
10
-9.6759721604935081
20
4.8111909073476253
30
0
10
-11.659373318083286
20
3.598855216161418
30
0
10
-13.176899910988638
20
2.0343017185654828
30
0
10
-14.049714116244761
20
0.28863636222259093
30
0
10
-14.150014336519089
20
-1.4464202120920389
30
0
10
-13.4454592384138
20
-2.9882996052531459
30
0
10
-12.02452533524924
20
-4.1900075126717997
30
0
10
-10.053774057846724
20
-4.9510224457650818
30
0
10
-7.7477220997062837
20
-5.2336625009852149
30
0
10
-5.3366712848746936
20
-5.0747701015990287
30
0
10
-3.0329860926893524
20
-4.6110629708456798
30
0
10
-1.0164686136904262
20
-4.0455836571645651
30
0
10
0.25415352897956112
20
-3.680756734390898
30
0
10
0.97276530575346953
20
-3.5327663326109624
30
0
10
1.3430707642974067
20
-3.4998546378202207
30
0
10
1.5010314885381604
20
-3.4998375519240108
30
0
0
LINE
5
103
100
AcDbEntity
8
OUTER_PROFILES
100
AcDbLine
10
6.2998937003150406
20
4.0015741235958533
30
0
11
6.2999695161603952
21
3.3006864453575115
31
0
0
LINE
5
104
100
AcDbEntity
8
OUTER_PROFILES
100
AcDbLine
10
6.2999695161603952
20
3.3006864453575115
30
0
11
6.8942132666698264
21
3.3007507254036459
31
0
0
LINE
5
105
100
AcDbEntity
8
OUTER_PROFILES
100
AcDbLine
10
6.8942132666698264
20
3.3007507254036459
30
0
11
7.0001442329343266
21
3.1948426728064949
31
0
0
LINE
5
106
100
AcDbEntity
8
OUTER_PROFILES
100
AcDbLine
10
7.0001442329343266
20
3.1948426728064949
30
0
11
7.1060543279938866
21
3.3007756819753
31
0
0
LINE
5
107
100
AcDbEntity
8
OUTER_PROFILES
100
AcDbLine
10
7.1060543279938866
20
3.3007756819753
30
0
11
7.7002960485053169
21
3.3008399790931122
31
0
0
LINE
5
108
100
AcDbEntity
8
OUTER_PROFILES
100
AcDbLine
10
7.7002960485053169
20
3.3008399790931122
30
0
11
7.7002202124891435
21
4.001725590484007
31
0
0
SPLINE
5
109
100
AcDbEntity
8
OUTER_PROFILES
100
AcDbSpline
70
4
71
5
72
26
73
20
74
0
42
0.000000001
43
0.0000000001
44
0.0000000001
40
0
40
0
40
0
40
0
40
0
40
0
40
0.066666666666666666
40
0.13333333333333333
40
0.20000000000000001
40
0.26666666666666666
40
0.33333333333333331
40
0.39999999999999997
40
0.46666666666666662
40
0.53333333333333333
40
0.59999999999999998
40
0.66666666666666663
40
0.73333333333333328
40
0.79999999999999993
40
0.86666666666666659
40
0.93333333333333324
40
1
40
1
40
1
40
1
40
1
40
1
41
1
41
1
41
1
41
1
41
1
41
1
41
1
41
1
41
1
41
1
41
1
41
1
41
1
41
1
41
1
41
1
41
1
41
1
41
1
41
1
10
13.901663703709083
20
-3.4984126485349742
30
0
10
14.040689695313091
20
-3.4983905829839372
30
0
10
14.31517234427365
20
-3.4455760487899907
30
0
10
14.716170457353488
20
-3.2081543809569117
30
0
10
15.216695254450517
20
-2.6146211981923555
30
0
10
15.716591242720273
20
-1.6195774912966385
30
0
10
16.014519787665826
20
-0.57960563652397123
30
0
10
16.049043420029594
20
0.35696281647041905
30
0
10
15.814951329367764
20
1.2817314093598582
30
0
10
15.331145117413051
20
2.1975130357145192
30
0
10
14.629387479571342
20
3.0378111684135916
30
0
10
13.752736030039955
20
3.7159907587423047
30
0
10
12.750707932631922
20
4.1555216922069214
30
0
10
11.676928341546777
20
4.3348867732613225
30
0
10
10.585844399784909
20
4.3096148498083524
30
0
10
9.5281969027794702
20
4.1735200958589997
30
0
10
8.7429415637633223
20
4.060386914233189
30
0
10
8.2016605924766051
20
4.0122104690262708
30
0
10
7.8635725980000641
20
4.0016310904359287
30
0
10
7.7002202124891426
20
4.001725590484007
30
0
0
LINE
5
110
100
AcDbEntity
8
OUTER_PROFILES
100
AcDbLine
10
13.901663703709083
20
-3.4984126485349742
30
0
11
12.251356741471934
21
-3.4986747379246541
31
0
0
LINE
5
111
100
AcDbEntity
8
OUTER_PROFILES
100
AcDbLine
10
12.251356741471934
20
-3.4986747379246541
30
0
11
12.2510747737196
21
-3.8986751633326198
31
0
0
ARC
5
112
100
AcDbEntity
8
OUTER_PROFILES
100
AcDbCircle
10
7.0010748007717227
20
-3.8992081242090695
30
0
40
5.2500000000000009
210
0
220
0
230
1
100
AcDbArc
50
-179.99342358792472
51
0.0058164588390914977
0
LINE
5
113
100
AcDbEntity
8
OUTER_PROFILES
100
AcDbLine
10
1.7510748353546752
20
-3.8998107194398326
30
0
11
1.7510560015556997
21
-3.7260051802863616
31
0
0
LWPOLYLINE
5
114
100
AcDbEntity
8
INTERIOR_PROFILES
100
AcDbPolyline
90
17
70
1
43
0.0
10
2.5010559405548261
20
-3.7259240561893625
10
2.5010313560931712
20
-3.4997293864668748
10
2.5009770125145918
20
-2.9997295092562144
10
0.00097739225542881059
20
-2.9999999964323756
10
-1.7763568394002505e-15
20
-8.8817841970012523e-16
10
6.3003265552993009
20
-4.4408920985006262e-16
10
6.8945702869752505
20
6.428086117926668e-05
10
7.0004783486198665
20
0.10599525617510296
10
7.1064093224336169
20
8.7196030334801833e-05
10
7.7006531839634569
20
0.00015098518578771092
10
14.00065291850737
20
0.0015143872142480141
10
14.000977359943791
20
-2.9979773362952704
10
11.50097744135121
20
-2.9982477499651221
10
11.501031541710656
20
-3.498755897203635
10
11.50105599128856
20
-3.7249505669407137
10
11.50107477786792
20
-3.8987541447104466
42
-0.99999251772701692
10
2.5010748309730153
20
-3.8997294444545676
0
LWPOLYLINE
5
115
100
AcDbEntity
8
INTERIOR_PROFILES
100
AcDbPolyline
90
8
70
1
43
0.0
10
9.4502581811109536
20
3.6510222636397098
10
9.4503529551200867
20
2.7748275977068824
10
9.9503529521951446
20
2.7748816804422973
10
9.9502581781860115
20
3.6510763463751248
10
10.050258177601023
20
3.6510871629222077
10
10.050404200986643
20
2.3010871708195522
10
9.3504042050815617
20
2.3010114549899714
10
9.350258181695942
20
3.6510114470926269
0
LWPOLYLINE
5
116
100
AcDbEntity
8
INTERIOR_PROFILES
100
AcDbPolyline
90
8
70
1
43
0.0
10
3.9499316745238557
20
3.6504273182299278
10
4.0499316739388682
20
3.6504381347770107
10
4.0500264479480004
20
2.7742434688441833
10
4.5500264450230583
20
2.7742975515795982
10
4.5499316710139253
20
3.6504922175124253
10
4.649931670428936
20
3.6505030340595086
10
4.6500776938145556
20
2.3005030419568531
10
3.9500776979094754
20
2.3004273261272719
0
CIRCLE
5
117
100
AcDbEntity
8
INTERIOR_PROFILES
100
AcDbCircle
10
-9.7003205040163678
20
3.0748546373196244
30
0
40
0.12500000000000006
210
0
220
0
230
-1
0
CIRCLE
5
118
100
AcDbEntity
8
INTERIOR_PROFILES
100
AcDbCircle
10
-4.2999939968442806
20
3.0742705084569253
30
0
40
0.12500000000000006
210
0
220
0
230
-1
0
LWPOLYLINE
5
119
100
AcDbEntity
8
INTERIOR_PROFILES
100
AcDbPolyline
90
4
70
1
43
0.0
10
11.200295002871608
20
3.3115971971978615
10
12.400294995851747
20
3.3117269957628572
10
12.400403161322576
20
2.3117270016127414
10
11.200403168342438
20
2.3115972030477456
0
LINE
5
120
100
AcDbEntity
8
BEND
100
AcDbLine
10
9.9502758196860999
20
3.4879790117999918
30
-8.3266726846886765e-17
11
9.4502758226110419
21
3.4879249290645773
31
-8.3266726846886765e-17
0
LINE
5
121
100
AcDbEntity
8
BEND
100
AcDbLine
10
12.251277017046444
20
-3.6117720827389226
30
-2.29777824958635e-16
11
1.7510437461783361
21
-3.6129078454211312
31
-7.19969135930259e-17
0
LINE
5
122
100
AcDbEntity
8
BEND
100
AcDbLine
10
4.5499493125140136
20
3.4873948829372927
30
-8.3266726846886765e-17
11
4.0499493154389556
21
3.4873408002018778
31
-8.3266726846886765e-17
0
LINE
5
123
100
AcDbEntity
8
BEND_EXTENT
100
AcDbLine
10
9.9502880529126472
20
3.3748816769323664
30
0
11
9.4502880558375892
21
3.3748275941969514
31
0
0
LINE
5
124
100
AcDbEntity
8
BEND_EXTENT
100
AcDbLine
10
9.4502635893844946
20
3.6010222639322045
30
0
11
9.9502635864595526
21
3.601076346667619
31
0
0
LINE
5
125
100
AcDbEntity
8
BEND_EXTENT
100
AcDbLine
10
4.5499615457405609
20
3.3742975480696673
30
0
11
4.049961548665503
21
3.3742434653342523
31
0
0
LINE
5
126
100
AcDbEntity
8
BEND_EXTENT
100
AcDbLine
10
4.0499370822124101
20
3.6004381350695049
30
0
11
4.5499370792874672
21
3.6004922178049199
31
0
0
LINE
5
127
100
AcDbEntity
8
BEND_EXTENT
100
AcDbLine
10
2.5010559405548261
20
-3.7259240561893625
30
0
11
1.7510560015556997
21
-3.7260051802863616
31
0
0
LINE
5
128
100
AcDbEntity
8
BEND_EXTENT
100
AcDbLine
10
12.251197292620951
20
-3.7248694275531911
30
0
11
11.50105599128856
21
-3.7249505669407137
31
0
0
LINE
5
129
100
AcDbEntity
8
BEND_EXTENT
100
AcDbLine
10
2.5010313560931712
20
-3.4997293864668748
30
0
11
1.7510314908009796
21
-3.4998105105559008
31
0
0
LINE
5
130
100
AcDbEntity
8
BEND_EXTENT
100
AcDbLine
10
12.251356741471934
20
-3.4986747379246541
30
0
11
11.501031541710656
21
-3.498755897203635
31
0
0
ENDSEC
0
SECTION
2
OBJECTS
0
DICTIONARY
5
C
100
AcDbDictionary
3
ACAD_GROUP
350
D
3
ACAD_MLINESTYLE
350
17
0
DICTIONARY
5
D
100
AcDbDictionary
0
DICTIONARY
5
1A
330
C
100
AcDbDictionary
0
DICTIONARY
5
17
100
AcDbDictionary
0
ENDSEC
0
EOF
